<svg width="222" height="204" viewBox="0 0 222 204" fill="none" xmlns="http://www.w3.org/2000/svg">
<path d="M26.5018 203.247C2.70664 188 0.276281 164.59 0.0281867 148.995C-0.0157374 146.234 2.23853 144 4.99993 144H217.281C219.778 144 221.869 145.842 221.957 148.337C222.361 159.807 220.51 190.926 190.222 203.629C189.635 203.875 189.051 204 188.416 204L29.0712 204C28.1515 204 27.2761 203.744 26.5018 203.247Z" fill="#E4002B"/>
<path d="M61.4362 0.294875C18.4705 15.85 6.0149 44.4799 1.91058 66.3525C1.35179 69.3304 3.69801 72 6.72787 72H215C217.761 72 219.956 69.7644 219.647 67.0204C218.107 53.3786 209.857 15.4157 165.65 0.26478C165.142 0.0904955 164.615 0 164.077 0L63.1177 7.73179e-06C62.5479 7.92805e-06 61.972 0.100898 61.4362 0.294875Z" fill="#E4002B"/>
<path d="M6.89838 143L5.55438 136.952L10.7384 135.704V104.6H3.82638L2.38638 96.824L3.05838 95.864H10.8344V91.064C10.8344 86.52 11.5704 82.904 13.0424 80.216C14.5144 77.464 16.4344 75.512 18.8024 74.36C21.1704 73.144 23.6664 72.536 26.2904 72.536C27.5704 72.536 29.0744 72.76 30.8024 73.208C32.5304 73.592 34.2904 74.36 36.0824 75.512C37.8744 76.6 39.5064 78.2 40.9784 80.312L30.0344 86.936L26.1944 81.656H25.7144C24.5624 81.656 23.6984 82.104 23.1224 83C22.6104 83.832 22.3544 84.888 22.3544 86.168V95.864H33.2984C33.6184 95.864 33.7784 96.056 33.7784 96.44V104.6H22.3544V135.896L31.5704 136.952L31.4744 143H6.89838ZM58.9821 143.384C55.4621 143.384 52.0701 142.488 48.8061 140.696C45.6061 138.84 42.9821 136.12 40.9341 132.536C38.8861 128.952 37.8621 124.568 37.8621 119.384C37.8621 114.2 38.8861 109.88 40.9341 106.424C42.9821 102.904 45.6061 100.28 48.8061 98.552C52.0701 96.76 55.4621 95.864 58.9821 95.864C62.5021 95.864 65.8621 96.76 69.0621 98.552C72.3261 100.28 74.9821 102.904 77.0301 106.424C79.1421 109.88 80.1981 114.2 80.1981 119.384C80.1981 124.568 79.1421 128.952 77.0301 132.536C74.9821 136.12 72.3261 138.84 69.0621 140.696C65.8621 142.488 62.5021 143.384 58.9821 143.384ZM58.9821 134.36C60.7101 134.36 62.2781 133.912 63.6861 133.016C65.0941 132.12 66.2141 130.616 67.0461 128.504C67.8781 126.392 68.2941 123.544 68.2941 119.96C68.2941 116.312 67.8781 113.4 67.0461 111.224C66.2141 108.984 65.0941 107.384 63.6861 106.424C62.2781 105.4 60.7101 104.888 58.9821 104.888C57.7661 104.888 56.5821 105.176 55.4301 105.752C54.3421 106.264 53.3501 107.128 52.4541 108.344C51.6221 109.56 50.9501 111.128 50.4381 113.048C49.9901 114.968 49.7661 117.272 49.7661 119.96C49.7661 123.544 50.1821 126.392 51.0141 128.504C51.8461 130.616 52.9661 132.12 54.3741 133.016C55.7821 133.912 57.3181 134.36 58.9821 134.36ZM106.888 143.384C103.368 143.384 99.9764 142.488 96.7124 140.696C93.5124 138.84 90.8884 136.12 88.8404 132.536C86.7924 128.952 85.7684 124.568 85.7684 119.384C85.7684 114.2 86.7924 109.88 88.8404 106.424C90.8884 102.904 93.5124 100.28 96.7124 98.552C99.9764 96.76 103.368 95.864 106.888 95.864C110.408 95.864 113.768 96.76 116.968 98.552C120.232 100.28 122.888 102.904 124.936 106.424C127.048 109.88 128.104 114.2 128.104 119.384C128.104 124.568 127.048 128.952 124.936 132.536C122.888 136.12 120.232 138.84 116.968 140.696C113.768 142.488 110.408 143.384 106.888 143.384ZM106.888 134.36C108.616 134.36 110.184 133.912 111.592 133.016C113 132.12 114.12 130.616 114.952 128.504C115.784 126.392 116.2 123.544 116.2 119.96C116.2 116.312 115.784 113.4 114.952 111.224C114.12 108.984 113 107.384 111.592 106.424C110.184 105.4 108.616 104.888 106.888 104.888C105.672 104.888 104.488 105.176 103.336 105.752C102.248 106.264 101.256 107.128 100.36 108.344C99.5284 109.56 98.8564 111.128 98.3444 113.048C97.8964 114.968 97.6724 117.272 97.6724 119.96C97.6724 123.544 98.0884 126.392 98.9204 128.504C99.7524 130.616 100.872 132.12 102.28 133.016C103.688 133.912 105.224 134.36 106.888 134.36ZM152.107 143.384C148.587 143.384 145.451 142.488 142.699 140.696C139.947 138.84 137.771 136.216 136.171 132.824C134.635 129.368 133.867 125.272 133.867 120.536C133.867 115.672 134.507 111.64 135.787 108.44C137.131 105.24 138.827 102.744 140.875 100.952C142.987 99.096 145.227 97.784 147.595 97.016C149.963 96.248 152.171 95.864 154.219 95.864C155.563 95.864 156.779 95.992 157.867 96.248C159.019 96.44 160.075 96.728 161.035 97.112V80.792H156.139L155.083 74.264L169.291 72.248L172.651 75.8V132.92C172.651 133.752 172.843 134.328 173.227 134.648C173.611 134.904 174.027 135.032 174.475 135.032C174.987 135.032 175.435 134.968 175.819 134.84C176.267 134.648 176.523 134.52 176.587 134.456L178.411 139.448C177.963 139.896 177.003 140.664 175.531 141.752C174.123 142.84 172.235 143.384 169.867 143.384C167.947 143.384 166.379 143.032 165.163 142.328C163.947 141.56 162.987 140.568 162.283 139.352C161.131 140.696 159.691 141.72 157.963 142.424C156.235 143.064 154.283 143.384 152.107 143.384ZM154.315 134.264C155.659 134.264 157.035 133.816 158.443 132.92C159.851 132.024 160.715 130.904 161.035 129.56V106.712C160.459 106.2 159.659 105.752 158.635 105.368C157.611 104.984 156.523 104.792 155.371 104.792C153.835 104.792 152.331 105.24 150.859 106.136C149.387 106.968 148.171 108.536 147.211 110.84C146.251 113.08 145.771 116.344 145.771 120.632C145.771 123.64 146.091 126.168 146.731 128.216C147.435 130.2 148.427 131.704 149.707 132.728C150.987 133.752 152.523 134.264 154.315 134.264ZM199.691 143.288C196.683 143.288 193.931 142.744 191.435 141.656C189.003 140.568 186.955 139.192 185.291 137.528C183.691 135.8 182.539 134.104 181.835 132.44L194.123 127.736L196.619 133.976C197.003 134.04 197.515 134.104 198.155 134.168C198.859 134.232 199.563 134.264 200.267 134.264C200.907 134.264 201.579 134.136 202.283 133.88C203.051 133.56 203.691 133.08 204.203 132.44C204.779 131.8 205.067 130.936 205.067 129.848C205.067 128.504 204.491 127.48 203.339 126.776C202.251 126.008 201.003 125.4 199.595 124.952C198.187 124.504 197.035 124.056 196.139 123.608C191.659 121.816 188.523 119.768 186.731 117.464C184.939 115.096 184.043 112.536 184.043 109.784C184.043 107.224 184.779 104.888 186.251 102.776C187.723 100.664 189.707 99 192.203 97.784C194.699 96.504 197.515 95.864 200.651 95.864C203.787 95.864 206.443 96.376 208.619 97.4C210.795 98.424 212.555 99.672 213.899 101.144C215.307 102.616 216.331 104.024 216.971 105.368L204.779 110.264L202.475 105.368C202.475 105.368 202.251 105.304 201.803 105.176C201.419 104.984 200.875 104.888 200.171 104.888C199.211 104.888 198.411 105.048 197.771 105.368C197.195 105.624 196.747 106.04 196.427 106.616C196.107 107.128 195.947 107.768 195.947 108.536C195.947 109.56 196.523 110.456 197.675 111.224C198.891 111.992 200.395 112.76 202.187 113.528C204.043 114.232 205.899 115.096 207.755 116.12C210.123 117.336 212.203 118.936 213.995 120.92C215.851 122.84 216.779 125.4 216.779 128.6C216.779 131.736 215.979 134.424 214.379 136.664C212.779 138.84 210.667 140.504 208.043 141.656C205.483 142.744 202.699 143.288 199.691 143.288Z" fill="#E4002B"/>
</svg>
